%TF.GenerationSoftware,Altium Limited,Altium Designer,23.0.1 (38)*%
G04 Layer_Color=8388736*
%FSLAX45Y45*%
%MOMM*%
%TF.SameCoordinates,23585DA5-ACB2-476B-884B-69EE35DA9315*%
%TF.FilePolarity,Negative*%
%TF.FileFunction,Soldermask,Top*%
%TF.Part,Single*%
G01*
G75*
%TA.AperFunction,ComponentPad*%
%ADD23C,1.20000*%
%ADD24R,1.20000X1.20000*%
%ADD25R,1.20000X1.20000*%
%ADD33R,1.25320X1.25320*%
%ADD34C,1.25320*%
%TA.AperFunction,ViaPad*%
%ADD35C,1.72720*%
%ADD36R,2.75320X3.80320*%
%ADD37R,3.80320X2.75320*%
%TA.AperFunction,ComponentPad*%
%ADD38R,1.55320X1.55320*%
%ADD39C,1.55320*%
%ADD40P,2.19656X4X90.0*%
%ADD41R,1.55320X1.55320*%
%ADD42C,1.40320*%
%TA.AperFunction,ViaPad*%
%ADD43C,3.20320*%
%ADD44C,7.20320*%
D23*
X6093460Y4255960D02*
D03*
X5016500Y4502340D02*
D03*
X7477380Y5113020D02*
D03*
D24*
X6093460Y4755960D02*
D03*
X5016500Y5002340D02*
D03*
D25*
X6977380Y5113020D02*
D03*
D33*
X5608320Y4503420D02*
D03*
X8648700Y5234940D02*
D03*
D34*
X5608320Y4630420D02*
D03*
Y4757420D02*
D03*
X8648700Y5107940D02*
D03*
Y4980940D02*
D03*
D35*
X5220000Y7330400D02*
D03*
X9220000D02*
D03*
X90708478Y253997461D02*
D03*
D36*
X7741920Y6799580D02*
D03*
X8676640Y6682740D02*
D03*
D37*
X8209280Y6736080D02*
D03*
D38*
X6565900Y6377940D02*
D03*
Y5115560D02*
D03*
X5016500Y5341620D02*
D03*
D39*
X6565900Y7277940D02*
D03*
X8410638Y6023038D02*
D03*
X8163560Y4500880D02*
D03*
X6565900Y6015560D02*
D03*
X5016500Y6241620D02*
D03*
D40*
X7774242Y5386642D02*
D03*
D41*
X7263559Y4500880D02*
D03*
D42*
X8653780Y4352220D02*
D03*
Y4502220D02*
D03*
D43*
X9466580Y5244900D02*
D03*
Y6344920D02*
D03*
X4556800Y5545400D02*
D03*
X4556760Y4945380D02*
D03*
D44*
X4404400Y6178300D02*
D03*
X4404360Y4178300D02*
D03*
%TF.MD5,214e6d394138b778b90ca3f1e2dbed52*%
M02*
