%TF.GenerationSoftware,Altium Limited,Altium Designer,23.0.1 (38)*%
G04 Layer_Physical_Order=2*
G04 Layer_Color=16711680*
%FSLAX45Y45*%
%MOMM*%
%TF.SameCoordinates,23585DA5-ACB2-476B-884B-69EE35DA9315*%
%TF.FilePolarity,Positive*%
%TF.FileFunction,Copper,L2,Bot,Signal*%
%TF.Part,Single*%
G01*
G75*
%TA.AperFunction,NonConductor*%
%ADD13C,0.25400*%
%TA.AperFunction,ComponentPad*%
%ADD14R,1.05000X1.05000*%
%ADD15C,1.05000*%
%TA.AperFunction,ViaPad*%
%ADD16C,1.52400*%
%ADD17R,2.55000X3.60000*%
%ADD18R,3.60000X2.55000*%
%TA.AperFunction,ComponentPad*%
%ADD19R,1.35000X1.35000*%
%ADD20C,1.35000*%
%ADD21P,1.90919X4X90.0*%
%ADD22R,1.35000X1.35000*%
%ADD23C,1.20000*%
%ADD24R,1.20000X1.20000*%
%ADD25R,1.20000X1.20000*%
%TA.AperFunction,ViaPad*%
%ADD26C,3.00000*%
%ADD27C,7.00000*%
%TA.AperFunction,NonConductor*%
%ADD28C,0.35000*%
D13*
X5600700Y4638040D02*
X5608320Y4630420D01*
X4556760Y4652919D02*
X4571639Y4638040D01*
D14*
X5608320Y4503420D02*
D03*
X8648700Y5234940D02*
D03*
D15*
X5608320Y4630420D02*
D03*
Y4757420D02*
D03*
X8648700Y5107940D02*
D03*
Y4980940D02*
D03*
D16*
X5220000Y7330400D02*
D03*
X9220000D02*
D03*
X90708478Y253997461D02*
D03*
D17*
X7741920Y6799580D02*
D03*
X8676640Y6682740D02*
D03*
D18*
X8209280Y6736080D02*
D03*
D19*
X6565900Y6377940D02*
D03*
Y5115560D02*
D03*
X5016500Y5341620D02*
D03*
D20*
X6565900Y7277940D02*
D03*
X8410638Y6023038D02*
D03*
X8163560Y4500880D02*
D03*
X6565900Y6015560D02*
D03*
X5016500Y6241620D02*
D03*
D21*
X7774242Y5386642D02*
D03*
D22*
X7263559Y4500880D02*
D03*
D23*
X8653780Y4352220D02*
D03*
Y4502220D02*
D03*
X6093460Y4255960D02*
D03*
X5016500Y4502340D02*
D03*
X7477380Y5113020D02*
D03*
D24*
X6093460Y4755960D02*
D03*
X5016500Y5002340D02*
D03*
D25*
X6977380Y5113020D02*
D03*
D26*
X9466580Y5244900D02*
D03*
Y6344920D02*
D03*
X4556800Y5545400D02*
D03*
X4556760Y4945380D02*
D03*
D27*
X4404400Y6178300D02*
D03*
X4404360Y4178300D02*
D03*
D28*
X4571639Y4638040D02*
X5600700D01*
X4556760Y4652919D02*
Y4945380D01*
X4480040Y4253980D02*
Y4566400D01*
X4559300Y4645660D01*
%TF.MD5,ca9e10e3f7ce3a8633de3bad644b8211*%
M02*
